<svg width="22" height="23" viewBox="0 0 22 23" fill="none" xmlns="http://www.w3.org/2000/svg">
<g id="checkbox" clip-path="url(#clip0_7_621)">
<path id="Rectangle 2701 (Stroke)" d="M0.5 10.1C0.5 8.41159 0.500389 7.17536 0.580085 6.19993C0.659303 5.23034 0.814384 4.56255 1.09946 4.00305C1.62677 2.96816 2.46816 2.12677 3.50305 1.59946C4.06255 1.31438 4.73034 1.1593 5.69993 1.08008C6.67536 1.00039 7.91159 1 9.6 1H12.4C14.0884 1 15.3246 1.00039 16.3001 1.08008C17.2697 1.1593 17.9374 1.31438 18.4969 1.59946C19.5318 2.12677 20.3732 2.96816 20.9005 4.00305C21.1856 4.56255 21.3407 5.23034 21.4199 6.19993C21.4996 7.17536 21.5 8.41159 21.5 10.1V12.9C21.5 14.5884 21.4996 15.8246 21.4199 16.8001C21.3407 17.7697 21.1856 18.4374 20.9005 18.9969C20.3732 20.0318 19.5318 20.8732 18.4969 21.4005C17.9374 21.6856 17.2697 21.8407 16.3001 21.9199C15.3246 21.9996 14.0884 22 12.4 22H9.6C7.91159 22 6.67536 21.9996 5.69993 21.9199C4.73034 21.8407 4.06255 21.6856 3.50305 21.4005C2.46816 20.8732 1.62677 20.0318 1.09946 18.9969C0.814384 18.4374 0.659303 17.7697 0.580085 16.8001C0.500389 15.8246 0.5 14.5884 0.5 12.9V10.1Z" stroke="black" stroke-opacity="0.2"/>
</g>
<defs>
<clipPath id="clip0_7_621">
<rect width="22" height="22" fill="white" transform="translate(0 0.5)"/>
</clipPath>
</defs>
</svg>
